<mxfile host="app.diagrams.net" modified="2023-09-08T11:51:16.855Z" agent="Mozilla/5.0 (Windows NT 10.0; Win64; x64; rv:109.0) Gecko/20100101 Firefox/117.0" etag="MyzozAoHhYe3CBhIJijA" version="21.7.2" type="github">
  <diagram name="Pagina-1" id="aigSdx5Djes0g_Ur09qG">
    <mxGraphModel dx="1687" dy="911" grid="1" gridSize="10" guides="1" tooltips="1" connect="1" arrows="1" fold="1" page="1" pageScale="1" pageWidth="1100" pageHeight="850" math="0" shadow="0">
      <root>
        <mxCell id="0" />
        <mxCell id="1" parent="0" />
        <mxCell id="5jeptjNZS5MFGglba8kD-1" value="Anagrafica" style="swimlane;fontStyle=0;childLayout=stackLayout;horizontal=1;startSize=30;horizontalStack=0;resizeParent=1;resizeParentMax=0;resizeLast=0;collapsible=1;marginBottom=0;whiteSpace=wrap;html=1;" parent="1" vertex="1">
          <mxGeometry x="510" y="20" width="140" height="180" as="geometry" />
        </mxCell>
        <mxCell id="5jeptjNZS5MFGglba8kD-2" value="&lt;div&gt;&lt;u&gt;&lt;b&gt;CodiceFiscale&lt;/b&gt;&lt;/u&gt;&lt;/div&gt;&lt;div&gt;Nome&lt;/div&gt;&lt;div&gt;Cognome&lt;/div&gt;&lt;div&gt;Nascita&lt;/div&gt;&lt;div&gt;Strada&lt;/div&gt;&lt;div&gt;Indirizzo&lt;br&gt;&lt;/div&gt;&lt;div&gt;Civico&lt;/div&gt;&lt;div&gt;Residenza&lt;/div&gt;" style="text;strokeColor=none;fillColor=none;align=left;verticalAlign=middle;spacingLeft=4;spacingRight=4;overflow=hidden;points=[[0,0.5],[1,0.5]];portConstraint=eastwest;rotatable=0;whiteSpace=wrap;html=1;" parent="5jeptjNZS5MFGglba8kD-1" vertex="1">
          <mxGeometry y="30" width="140" height="150" as="geometry" />
        </mxCell>
        <mxCell id="5jeptjNZS5MFGglba8kD-7" value="Corsi" style="swimlane;fontStyle=0;childLayout=stackLayout;horizontal=1;startSize=30;horizontalStack=0;resizeParent=1;resizeParentMax=0;resizeLast=0;collapsible=1;marginBottom=0;whiteSpace=wrap;html=1;" parent="1" vertex="1">
          <mxGeometry x="1190" y="260" width="140" height="180" as="geometry" />
        </mxCell>
        <mxCell id="5jeptjNZS5MFGglba8kD-8" value="&lt;div&gt;&lt;u&gt;&lt;b&gt;Nome&lt;/b&gt;&lt;/u&gt;&lt;/div&gt;&lt;div&gt;Descrizione*&lt;/div&gt;&lt;div&gt;Durata&lt;/div&gt;&lt;div&gt;SitoWeb*&lt;br&gt;&lt;/div&gt;" style="text;strokeColor=none;fillColor=none;align=left;verticalAlign=middle;spacingLeft=4;spacingRight=4;overflow=hidden;points=[[0,0.5],[1,0.5]];portConstraint=eastwest;rotatable=0;whiteSpace=wrap;html=1;" parent="5jeptjNZS5MFGglba8kD-7" vertex="1">
          <mxGeometry y="30" width="140" height="150" as="geometry" />
        </mxCell>
        <mxCell id="5jeptjNZS5MFGglba8kD-9" value="Studenti" style="swimlane;fontStyle=0;childLayout=stackLayout;horizontal=1;startSize=30;horizontalStack=0;resizeParent=1;resizeParentMax=0;resizeLast=0;collapsible=1;marginBottom=0;whiteSpace=wrap;html=1;" parent="1" vertex="1">
          <mxGeometry x="850" y="260" width="140" height="180" as="geometry" />
        </mxCell>
        <mxCell id="icdrcerb1lxKCnP7kqdp-1" value="&lt;div&gt;&lt;u&gt;&lt;b&gt;Matricola&lt;/b&gt;&lt;br&gt;&lt;/u&gt;&lt;/div&gt;&lt;div&gt;&lt;i&gt;&lt;b&gt;CodiceFiscale&lt;u&gt;&lt;br&gt;&lt;/u&gt;&lt;/b&gt;&lt;/i&gt;&lt;/div&gt;&lt;div&gt;&lt;div&gt;Password&lt;br&gt;&lt;/div&gt;&lt;div&gt;Iscrizione&lt;/div&gt;&lt;div&gt;&lt;i&gt;&lt;b&gt;Corso&lt;/b&gt;&lt;/i&gt;&lt;/div&gt;&lt;/div&gt;" style="text;strokeColor=none;fillColor=none;align=left;verticalAlign=middle;spacingLeft=4;spacingRight=4;overflow=hidden;points=[[0,0.5],[1,0.5]];portConstraint=eastwest;rotatable=0;whiteSpace=wrap;html=1;" vertex="1" parent="5jeptjNZS5MFGglba8kD-9">
          <mxGeometry y="30" width="140" height="150" as="geometry" />
        </mxCell>
        <mxCell id="5jeptjNZS5MFGglba8kD-12" value="Segreteria" style="swimlane;fontStyle=0;childLayout=stackLayout;horizontal=1;startSize=30;horizontalStack=0;resizeParent=1;resizeParentMax=0;resizeLast=0;collapsible=1;marginBottom=0;whiteSpace=wrap;html=1;" parent="1" vertex="1">
          <mxGeometry x="170" y="20" width="140" height="180" as="geometry" />
        </mxCell>
        <mxCell id="5jeptjNZS5MFGglba8kD-13" value="&lt;div&gt;&lt;u&gt;&lt;b&gt;Segreteria&lt;/b&gt;&lt;/u&gt;&lt;br&gt;&lt;/div&gt;&lt;div&gt;Password&lt;b&gt;&lt;br&gt;&lt;/b&gt;&lt;/div&gt;&lt;div&gt;&lt;b&gt;&lt;i&gt;CodiceFiscale&lt;/i&gt;&lt;/b&gt;&lt;br&gt;&lt;/div&gt;" style="text;strokeColor=none;fillColor=none;align=left;verticalAlign=middle;spacingLeft=4;spacingRight=4;overflow=hidden;points=[[0,0.5],[1,0.5]];portConstraint=eastwest;rotatable=0;whiteSpace=wrap;html=1;" parent="5jeptjNZS5MFGglba8kD-12" vertex="1">
          <mxGeometry y="30" width="140" height="150" as="geometry" />
        </mxCell>
        <mxCell id="5jeptjNZS5MFGglba8kD-14" value="Docenti" style="swimlane;fontStyle=0;childLayout=stackLayout;horizontal=1;startSize=30;horizontalStack=0;resizeParent=1;resizeParentMax=0;resizeLast=0;collapsible=1;marginBottom=0;whiteSpace=wrap;html=1;" parent="1" vertex="1">
          <mxGeometry x="850" y="20" width="140" height="180" as="geometry" />
        </mxCell>
        <mxCell id="5jeptjNZS5MFGglba8kD-15" value="&lt;div&gt;&lt;u&gt;&lt;b&gt;Docente&lt;/b&gt;&lt;/u&gt;&lt;br&gt;&lt;/div&gt;&lt;div&gt;Password&lt;/div&gt;&lt;div&gt;Qualifica&lt;/div&gt;&lt;div&gt;Sitoweb*&lt;br&gt;&lt;/div&gt;&lt;div&gt;&lt;i&gt;&lt;b&gt;CodiceFiscale&lt;/b&gt;&lt;/i&gt;&lt;br&gt;&lt;/div&gt;" style="text;strokeColor=none;fillColor=none;align=left;verticalAlign=middle;spacingLeft=4;spacingRight=4;overflow=hidden;points=[[0,0.5],[1,0.5]];portConstraint=eastwest;rotatable=0;whiteSpace=wrap;html=1;" parent="5jeptjNZS5MFGglba8kD-14" vertex="1">
          <mxGeometry y="30" width="140" height="150" as="geometry" />
        </mxCell>
        <mxCell id="5jeptjNZS5MFGglba8kD-16" value="Insegnamenti" style="swimlane;fontStyle=0;childLayout=stackLayout;horizontal=1;startSize=30;horizontalStack=0;resizeParent=1;resizeParentMax=0;resizeLast=0;collapsible=1;marginBottom=0;whiteSpace=wrap;html=1;" parent="1" vertex="1">
          <mxGeometry x="1190" y="20" width="140" height="180" as="geometry" />
        </mxCell>
        <mxCell id="5jeptjNZS5MFGglba8kD-17" value="&lt;div&gt;&lt;b&gt;&lt;u&gt;Nome&lt;/u&gt;&lt;/b&gt;&lt;br&gt;&lt;/div&gt;&lt;div&gt;Durata&lt;/div&gt;&lt;div&gt;Descrizione&lt;/div&gt;&lt;div&gt;SitoWeb*&lt;br&gt;&lt;/div&gt;&lt;div&gt;&lt;i&gt;&lt;b&gt;Docente&lt;/b&gt;&lt;/i&gt;&lt;br&gt;&lt;/div&gt;" style="text;strokeColor=none;fillColor=none;align=left;verticalAlign=middle;spacingLeft=4;spacingRight=4;overflow=hidden;points=[[0,0.5],[1,0.5]];portConstraint=eastwest;rotatable=0;whiteSpace=wrap;html=1;" parent="5jeptjNZS5MFGglba8kD-16" vertex="1">
          <mxGeometry y="30" width="140" height="150" as="geometry" />
        </mxCell>
        <mxCell id="5jeptjNZS5MFGglba8kD-18" value="Esami" style="swimlane;fontStyle=0;childLayout=stackLayout;horizontal=1;startSize=30;horizontalStack=0;resizeParent=1;resizeParentMax=0;resizeLast=0;collapsible=1;marginBottom=0;whiteSpace=wrap;html=1;" parent="1" vertex="1">
          <mxGeometry x="1530" y="150" width="140" height="180" as="geometry" />
        </mxCell>
        <mxCell id="5jeptjNZS5MFGglba8kD-19" value="&lt;div&gt;&lt;i&gt;&lt;u&gt;&lt;b&gt;Insegnamento&lt;/b&gt;&lt;/u&gt;&lt;/i&gt;&lt;/div&gt;&lt;div&gt;&lt;i&gt;&lt;u&gt;&lt;b&gt;Corso&lt;/b&gt;&lt;/u&gt;&lt;/i&gt;&lt;/div&gt;&lt;div&gt;AnnoAccademico&lt;br&gt;&lt;/div&gt;" style="text;strokeColor=none;fillColor=none;align=left;verticalAlign=middle;spacingLeft=4;spacingRight=4;overflow=hidden;points=[[0,0.5],[1,0.5]];portConstraint=eastwest;rotatable=0;whiteSpace=wrap;html=1;" parent="5jeptjNZS5MFGglba8kD-18" vertex="1">
          <mxGeometry y="30" width="140" height="150" as="geometry" />
        </mxCell>
        <mxCell id="5jeptjNZS5MFGglba8kD-20" value="Propedeuticita" style="swimlane;fontStyle=0;childLayout=stackLayout;horizontal=1;startSize=30;horizontalStack=0;resizeParent=1;resizeParentMax=0;resizeLast=0;collapsible=1;marginBottom=0;whiteSpace=wrap;html=1;" parent="1" vertex="1">
          <mxGeometry x="1870" y="150" width="140" height="180" as="geometry" />
        </mxCell>
        <mxCell id="5jeptjNZS5MFGglba8kD-21" value="&lt;div&gt;&lt;i&gt;&lt;u&gt;&lt;b&gt;Target&lt;/b&gt;&lt;/u&gt;&lt;/i&gt;&lt;/div&gt;&lt;div&gt;&lt;div&gt;&lt;i&gt;&lt;u&gt;&lt;b&gt;Sorgente&lt;/b&gt;&lt;/u&gt;&lt;/i&gt;&lt;/div&gt;&lt;div&gt;&lt;i&gt;&lt;u&gt;&lt;b&gt;Corso&lt;/b&gt;&lt;/u&gt;&lt;/i&gt;&lt;/div&gt;&lt;/div&gt;" style="text;strokeColor=none;fillColor=none;align=left;verticalAlign=middle;spacingLeft=4;spacingRight=4;overflow=hidden;points=[[0,0.5],[1,0.5]];portConstraint=eastwest;rotatable=0;whiteSpace=wrap;html=1;" parent="5jeptjNZS5MFGglba8kD-20" vertex="1">
          <mxGeometry y="30" width="140" height="150" as="geometry" />
        </mxCell>
        <mxCell id="5jeptjNZS5MFGglba8kD-23" value="Calendario" style="swimlane;fontStyle=0;childLayout=stackLayout;horizontal=1;startSize=30;horizontalStack=0;resizeParent=1;resizeParentMax=0;resizeLast=0;collapsible=1;marginBottom=0;whiteSpace=wrap;html=1;" parent="1" vertex="1">
          <mxGeometry x="1530" y="650" width="140" height="180" as="geometry" />
        </mxCell>
        <mxCell id="5jeptjNZS5MFGglba8kD-24" value="&lt;div&gt;&lt;i&gt;&lt;u&gt;&lt;b&gt;Insegnamento&lt;/b&gt;&lt;/u&gt;&lt;/i&gt;&lt;/div&gt;&lt;div&gt;&lt;i&gt;&lt;u&gt;&lt;b&gt;Corso&lt;br&gt;&lt;/b&gt;&lt;/u&gt;&lt;/i&gt;&lt;/div&gt;&lt;div&gt;&lt;u&gt;&lt;b&gt;Data&lt;/b&gt;&lt;/u&gt;&lt;/div&gt;&lt;div&gt;Apertura&lt;/div&gt;&lt;div&gt;Chiusura&lt;i&gt;&lt;u&gt;&lt;b&gt;&lt;br&gt;&lt;/b&gt;&lt;/u&gt;&lt;/i&gt;&lt;/div&gt;" style="text;strokeColor=none;fillColor=none;align=left;verticalAlign=middle;spacingLeft=4;spacingRight=4;overflow=hidden;points=[[0,0.5],[1,0.5]];portConstraint=eastwest;rotatable=0;whiteSpace=wrap;html=1;" parent="5jeptjNZS5MFGglba8kD-23" vertex="1">
          <mxGeometry y="30" width="140" height="150" as="geometry" />
        </mxCell>
        <mxCell id="5jeptjNZS5MFGglba8kD-25" value="Iscrizioni" style="swimlane;fontStyle=0;childLayout=stackLayout;horizontal=1;startSize=30;horizontalStack=0;resizeParent=1;resizeParentMax=0;resizeLast=0;collapsible=1;marginBottom=0;whiteSpace=wrap;html=1;" parent="1" vertex="1">
          <mxGeometry x="1190" y="460" width="140" height="180" as="geometry" />
        </mxCell>
        <mxCell id="5jeptjNZS5MFGglba8kD-26" value="&lt;div&gt;&lt;i&gt;&lt;u&gt;&lt;b&gt;Insegnamento&lt;/b&gt;&lt;/u&gt;&lt;/i&gt;&lt;/div&gt;&lt;div&gt;&lt;i&gt;&lt;u&gt;&lt;b&gt;Corso&lt;br&gt;&lt;/b&gt;&lt;/u&gt;&lt;/i&gt;&lt;/div&gt;&lt;div&gt;&lt;i&gt;&lt;u&gt;&lt;b&gt;Data&lt;/b&gt;&lt;/u&gt;&lt;/i&gt;&lt;/div&gt;&lt;div&gt;&lt;i&gt;&lt;u&gt;&lt;b&gt;Studente&lt;br&gt;&lt;/b&gt;&lt;/u&gt;&lt;/i&gt;&lt;/div&gt;&lt;div&gt;Iscrizione&lt;/div&gt;&lt;div&gt;&lt;br&gt;&lt;/div&gt;" style="text;strokeColor=none;fillColor=none;align=left;verticalAlign=middle;spacingLeft=4;spacingRight=4;overflow=hidden;points=[[0,0.5],[1,0.5]];portConstraint=eastwest;rotatable=0;whiteSpace=wrap;html=1;" parent="5jeptjNZS5MFGglba8kD-25" vertex="1">
          <mxGeometry y="30" width="140" height="150" as="geometry" />
        </mxCell>
        <mxCell id="5jeptjNZS5MFGglba8kD-27" value="Inattivi" style="swimlane;fontStyle=0;childLayout=stackLayout;horizontal=1;startSize=30;horizontalStack=0;resizeParent=1;resizeParentMax=0;resizeLast=0;collapsible=1;marginBottom=0;whiteSpace=wrap;html=1;" parent="1" vertex="1">
          <mxGeometry x="850" y="460" width="140" height="180" as="geometry" />
        </mxCell>
        <mxCell id="5jeptjNZS5MFGglba8kD-28" value="&lt;div&gt;&lt;div&gt;&lt;u&gt;&lt;b&gt;Matricola&lt;/b&gt;&lt;br&gt;&lt;/u&gt;&lt;/div&gt;&lt;div&gt;&lt;i&gt;&lt;b&gt;CodiceFiscale&lt;u&gt;&lt;br&gt;&lt;/u&gt;&lt;/b&gt;&lt;/i&gt;&lt;/div&gt;&lt;div&gt;&lt;div&gt;Password&lt;br&gt;&lt;/div&gt;&lt;div&gt;Iscrizione&lt;/div&gt;&lt;div&gt;&lt;i&gt;&lt;b&gt;Corso&lt;/b&gt;&lt;/i&gt;&lt;/div&gt;&lt;/div&gt;&lt;/div&gt;&lt;div&gt;Data_Archivio&lt;/div&gt;&lt;div&gt;Motivo*&lt;br&gt;&lt;/div&gt;" style="text;strokeColor=none;fillColor=none;align=left;verticalAlign=middle;spacingLeft=4;spacingRight=4;overflow=hidden;points=[[0,0.5],[1,0.5]];portConstraint=eastwest;rotatable=0;whiteSpace=wrap;html=1;" parent="5jeptjNZS5MFGglba8kD-27" vertex="1">
          <mxGeometry y="30" width="140" height="150" as="geometry" />
        </mxCell>
        <mxCell id="5jeptjNZS5MFGglba8kD-29" value="Archivio" style="swimlane;fontStyle=0;childLayout=stackLayout;horizontal=1;startSize=30;horizontalStack=0;resizeParent=1;resizeParentMax=0;resizeLast=0;collapsible=1;marginBottom=0;whiteSpace=wrap;html=1;" parent="1" vertex="1">
          <mxGeometry x="1190" y="650" width="140" height="180" as="geometry" />
        </mxCell>
        <mxCell id="5jeptjNZS5MFGglba8kD-30" value="&lt;div&gt;&lt;i&gt;&lt;u&gt;&lt;b&gt;Insegnamento&lt;/b&gt;&lt;/u&gt;&lt;/i&gt;&lt;/div&gt;&lt;div&gt;&lt;i&gt;&lt;u&gt;&lt;b&gt;Corso&lt;br&gt;&lt;/b&gt;&lt;/u&gt;&lt;/i&gt;&lt;/div&gt;&lt;div&gt;&lt;i&gt;&lt;u&gt;&lt;b&gt;Data&lt;/b&gt;&lt;/u&gt;&lt;/i&gt;&lt;/div&gt;&lt;div&gt;&lt;i&gt;&lt;u&gt;&lt;b&gt;Inattivi&lt;br&gt;&lt;/b&gt;&lt;/u&gt;&lt;/i&gt;&lt;/div&gt;&lt;div&gt;Iscrizione&lt;i&gt;&lt;u&gt;&lt;b&gt;&lt;br&gt;&lt;/b&gt;&lt;/u&gt;&lt;/i&gt;&lt;/div&gt;&lt;div&gt;Voto*&lt;/div&gt;&lt;div&gt;Lode*&lt;/div&gt;&lt;div&gt;Verbalizzazione*&lt;i&gt;&lt;u&gt;&lt;b&gt;&lt;br&gt;&lt;/b&gt;&lt;/u&gt;&lt;/i&gt;&lt;/div&gt;" style="text;strokeColor=none;fillColor=none;align=left;verticalAlign=middle;spacingLeft=4;spacingRight=4;overflow=hidden;points=[[0,0.5],[1,0.5]];portConstraint=eastwest;rotatable=0;whiteSpace=wrap;html=1;" parent="5jeptjNZS5MFGglba8kD-29" vertex="1">
          <mxGeometry y="30" width="140" height="150" as="geometry" />
        </mxCell>
        <mxCell id="5jeptjNZS5MFGglba8kD-32" value="Dati_Doc" style="rhombus;whiteSpace=wrap;html=1;" parent="1" vertex="1">
          <mxGeometry x="710" y="60" width="80" height="80" as="geometry" />
        </mxCell>
        <mxCell id="5jeptjNZS5MFGglba8kD-33" value="" style="endArrow=none;html=1;rounded=0;" parent="1" target="5jeptjNZS5MFGglba8kD-32" edge="1">
          <mxGeometry width="50" height="50" relative="1" as="geometry">
            <mxPoint x="650" y="100" as="sourcePoint" />
            <mxPoint x="700" y="50" as="targetPoint" />
          </mxGeometry>
        </mxCell>
        <mxCell id="5jeptjNZS5MFGglba8kD-34" value="" style="endArrow=none;html=1;rounded=0;" parent="1" edge="1">
          <mxGeometry width="50" height="50" relative="1" as="geometry">
            <mxPoint x="790" y="99.52" as="sourcePoint" />
            <mxPoint x="850" y="99.52" as="targetPoint" />
          </mxGeometry>
        </mxCell>
        <mxCell id="5jeptjNZS5MFGglba8kD-35" value="" style="endArrow=none;html=1;rounded=0;" parent="1" edge="1">
          <mxGeometry width="50" height="50" relative="1" as="geometry">
            <mxPoint x="610" y="200" as="sourcePoint" />
            <mxPoint x="710" y="380" as="targetPoint" />
            <Array as="points">
              <mxPoint x="610" y="380" />
              <mxPoint x="680" y="380" />
            </Array>
          </mxGeometry>
        </mxCell>
        <mxCell id="5jeptjNZS5MFGglba8kD-36" value="Spec_Attivi" style="rhombus;whiteSpace=wrap;html=1;" parent="1" vertex="1">
          <mxGeometry x="710" y="340" width="80" height="80" as="geometry" />
        </mxCell>
        <mxCell id="5jeptjNZS5MFGglba8kD-37" value="" style="endArrow=none;html=1;rounded=0;" parent="1" edge="1">
          <mxGeometry width="50" height="50" relative="1" as="geometry">
            <mxPoint x="790" y="379.52" as="sourcePoint" />
            <mxPoint x="850" y="379.52" as="targetPoint" />
          </mxGeometry>
        </mxCell>
        <mxCell id="5jeptjNZS5MFGglba8kD-40" value="Referente" style="rhombus;whiteSpace=wrap;html=1;" parent="1" vertex="1">
          <mxGeometry x="1050" y="60" width="80" height="80" as="geometry" />
        </mxCell>
        <mxCell id="5jeptjNZS5MFGglba8kD-41" value="" style="endArrow=none;html=1;rounded=0;" parent="1" target="5jeptjNZS5MFGglba8kD-40" edge="1">
          <mxGeometry width="50" height="50" relative="1" as="geometry">
            <mxPoint x="990" y="100" as="sourcePoint" />
            <mxPoint x="1040" y="50" as="targetPoint" />
          </mxGeometry>
        </mxCell>
        <mxCell id="5jeptjNZS5MFGglba8kD-42" value="" style="endArrow=none;html=1;rounded=0;" parent="1" edge="1">
          <mxGeometry width="50" height="50" relative="1" as="geometry">
            <mxPoint x="1130" y="99.51999999999998" as="sourcePoint" />
            <mxPoint x="1190" y="99.51999999999998" as="targetPoint" />
          </mxGeometry>
        </mxCell>
        <mxCell id="5jeptjNZS5MFGglba8kD-43" value="Assegna" style="rhombus;whiteSpace=wrap;html=1;" parent="1" vertex="1">
          <mxGeometry x="1390" y="130" width="80" height="80" as="geometry" />
        </mxCell>
        <mxCell id="5jeptjNZS5MFGglba8kD-44" value="" style="endArrow=none;html=1;rounded=0;" parent="1" target="5jeptjNZS5MFGglba8kD-43" edge="1">
          <mxGeometry width="50" height="50" relative="1" as="geometry">
            <mxPoint x="1330" y="170" as="sourcePoint" />
            <mxPoint x="1380" y="120" as="targetPoint" />
          </mxGeometry>
        </mxCell>
        <mxCell id="5jeptjNZS5MFGglba8kD-45" value="" style="endArrow=none;html=1;rounded=0;" parent="1" edge="1">
          <mxGeometry width="50" height="50" relative="1" as="geometry">
            <mxPoint x="1470" y="169.51999999999998" as="sourcePoint" />
            <mxPoint x="1530" y="169.51999999999998" as="targetPoint" />
          </mxGeometry>
        </mxCell>
        <mxCell id="5jeptjNZS5MFGglba8kD-46" value="&lt;div&gt;Piano&lt;/div&gt;&lt;div&gt;Studi&lt;br&gt;&lt;/div&gt;" style="rhombus;whiteSpace=wrap;html=1;" parent="1" vertex="1">
          <mxGeometry x="1390" y="270" width="80" height="80" as="geometry" />
        </mxCell>
        <mxCell id="5jeptjNZS5MFGglba8kD-47" value="" style="endArrow=none;html=1;rounded=0;" parent="1" target="5jeptjNZS5MFGglba8kD-46" edge="1">
          <mxGeometry width="50" height="50" relative="1" as="geometry">
            <mxPoint x="1330" y="310" as="sourcePoint" />
            <mxPoint x="1380" y="260" as="targetPoint" />
          </mxGeometry>
        </mxCell>
        <mxCell id="5jeptjNZS5MFGglba8kD-48" value="" style="endArrow=none;html=1;rounded=0;" parent="1" edge="1">
          <mxGeometry width="50" height="50" relative="1" as="geometry">
            <mxPoint x="1470" y="309.52" as="sourcePoint" />
            <mxPoint x="1530" y="309.52" as="targetPoint" />
          </mxGeometry>
        </mxCell>
        <mxCell id="5jeptjNZS5MFGglba8kD-49" value="&lt;div&gt;Target&amp;nbsp;&lt;/div&gt;&lt;div&gt;(è Prop)&lt;/div&gt;" style="rhombus;whiteSpace=wrap;html=1;" parent="1" vertex="1">
          <mxGeometry x="1730" y="160" width="80" height="80" as="geometry" />
        </mxCell>
        <mxCell id="5jeptjNZS5MFGglba8kD-50" value="" style="endArrow=none;html=1;rounded=0;" parent="1" target="5jeptjNZS5MFGglba8kD-49" edge="1">
          <mxGeometry width="50" height="50" relative="1" as="geometry">
            <mxPoint x="1670" y="200" as="sourcePoint" />
            <mxPoint x="1720" y="150" as="targetPoint" />
          </mxGeometry>
        </mxCell>
        <mxCell id="5jeptjNZS5MFGglba8kD-51" value="" style="endArrow=none;html=1;rounded=0;" parent="1" edge="1">
          <mxGeometry width="50" height="50" relative="1" as="geometry">
            <mxPoint x="1810" y="199.51999999999998" as="sourcePoint" />
            <mxPoint x="1870" y="199.51999999999998" as="targetPoint" />
          </mxGeometry>
        </mxCell>
        <mxCell id="5jeptjNZS5MFGglba8kD-52" value="Segue" style="rhombus;whiteSpace=wrap;html=1;" parent="1" vertex="1">
          <mxGeometry x="1050" y="235" width="80" height="80" as="geometry" />
        </mxCell>
        <mxCell id="5jeptjNZS5MFGglba8kD-53" value="" style="endArrow=none;html=1;rounded=0;" parent="1" target="5jeptjNZS5MFGglba8kD-52" edge="1">
          <mxGeometry width="50" height="50" relative="1" as="geometry">
            <mxPoint x="990" y="275" as="sourcePoint" />
            <mxPoint x="1040" y="225" as="targetPoint" />
          </mxGeometry>
        </mxCell>
        <mxCell id="5jeptjNZS5MFGglba8kD-54" value="" style="endArrow=none;html=1;rounded=0;" parent="1" edge="1">
          <mxGeometry width="50" height="50" relative="1" as="geometry">
            <mxPoint x="1130" y="274.52" as="sourcePoint" />
            <mxPoint x="1190" y="274.52" as="targetPoint" />
          </mxGeometry>
        </mxCell>
        <mxCell id="5jeptjNZS5MFGglba8kD-55" value="Spec_Inat" style="rhombus;whiteSpace=wrap;html=1;" parent="1" vertex="1">
          <mxGeometry x="710" y="510" width="80" height="80" as="geometry" />
        </mxCell>
        <mxCell id="5jeptjNZS5MFGglba8kD-57" value="" style="endArrow=none;html=1;rounded=0;" parent="1" edge="1">
          <mxGeometry width="50" height="50" relative="1" as="geometry">
            <mxPoint x="790" y="549.52" as="sourcePoint" />
            <mxPoint x="850" y="549.52" as="targetPoint" />
          </mxGeometry>
        </mxCell>
        <mxCell id="5jeptjNZS5MFGglba8kD-58" value="Iscrive" style="rhombus;whiteSpace=wrap;html=1;" parent="1" vertex="1">
          <mxGeometry x="1050" y="395" width="80" height="80" as="geometry" />
        </mxCell>
        <mxCell id="5jeptjNZS5MFGglba8kD-59" value="" style="endArrow=none;html=1;rounded=0;" parent="1" target="5jeptjNZS5MFGglba8kD-58" edge="1">
          <mxGeometry width="50" height="50" relative="1" as="geometry">
            <mxPoint x="990" y="435" as="sourcePoint" />
            <mxPoint x="1040" y="385" as="targetPoint" />
          </mxGeometry>
        </mxCell>
        <mxCell id="5jeptjNZS5MFGglba8kD-60" value="" style="endArrow=none;html=1;rounded=0;" parent="1" edge="1">
          <mxGeometry width="50" height="50" relative="1" as="geometry">
            <mxPoint x="1130" y="434.52" as="sourcePoint" />
            <mxPoint x="1190" y="525" as="targetPoint" />
            <Array as="points">
              <mxPoint x="1150" y="435" />
              <mxPoint x="1150" y="525" />
            </Array>
          </mxGeometry>
        </mxCell>
        <mxCell id="5jeptjNZS5MFGglba8kD-64" value="Fatto" style="rhombus;whiteSpace=wrap;html=1;" parent="1" vertex="1">
          <mxGeometry x="1050" y="590" width="80" height="80" as="geometry" />
        </mxCell>
        <mxCell id="5jeptjNZS5MFGglba8kD-65" value="" style="endArrow=none;html=1;rounded=0;" parent="1" target="5jeptjNZS5MFGglba8kD-64" edge="1">
          <mxGeometry width="50" height="50" relative="1" as="geometry">
            <mxPoint x="990" y="630" as="sourcePoint" />
            <mxPoint x="1040" y="580" as="targetPoint" />
          </mxGeometry>
        </mxCell>
        <mxCell id="5jeptjNZS5MFGglba8kD-66" value="" style="endArrow=none;html=1;rounded=0;" parent="1" edge="1">
          <mxGeometry width="50" height="50" relative="1" as="geometry">
            <mxPoint x="1130" y="629.52" as="sourcePoint" />
            <mxPoint x="1190" y="720" as="targetPoint" />
            <Array as="points">
              <mxPoint x="1150" y="630" />
              <mxPoint x="1150" y="720" />
            </Array>
          </mxGeometry>
        </mxCell>
        <mxCell id="5jeptjNZS5MFGglba8kD-69" value="Appello" style="rhombus;whiteSpace=wrap;html=1;" parent="1" vertex="1">
          <mxGeometry x="1390" y="570" width="80" height="80" as="geometry" />
        </mxCell>
        <mxCell id="5jeptjNZS5MFGglba8kD-70" value="" style="endArrow=none;html=1;rounded=0;exitX=0.995;exitY=0.8;exitDx=0;exitDy=0;exitPerimeter=0;" parent="1" source="5jeptjNZS5MFGglba8kD-26" target="5jeptjNZS5MFGglba8kD-69" edge="1">
          <mxGeometry width="50" height="50" relative="1" as="geometry">
            <mxPoint x="1330" y="550" as="sourcePoint" />
            <mxPoint x="1380" y="500" as="targetPoint" />
          </mxGeometry>
        </mxCell>
        <mxCell id="5jeptjNZS5MFGglba8kD-71" value="" style="endArrow=none;html=1;rounded=0;exitX=1;exitY=0.5;exitDx=0;exitDy=0;" parent="1" source="5jeptjNZS5MFGglba8kD-69" edge="1">
          <mxGeometry width="50" height="50" relative="1" as="geometry">
            <mxPoint x="1470" y="640" as="sourcePoint" />
            <mxPoint x="1530" y="690.48" as="targetPoint" />
            <Array as="points">
              <mxPoint x="1490" y="610" />
              <mxPoint x="1490" y="690.48" />
            </Array>
          </mxGeometry>
        </mxCell>
        <mxCell id="5jeptjNZS5MFGglba8kD-72" value="Appello" style="rhombus;whiteSpace=wrap;html=1;" parent="1" vertex="1">
          <mxGeometry x="1390" y="680" width="80" height="80" as="geometry" />
        </mxCell>
        <mxCell id="5jeptjNZS5MFGglba8kD-73" value="" style="endArrow=none;html=1;rounded=0;" parent="1" target="5jeptjNZS5MFGglba8kD-72" edge="1">
          <mxGeometry width="50" height="50" relative="1" as="geometry">
            <mxPoint x="1330" y="720" as="sourcePoint" />
            <mxPoint x="1380" y="670" as="targetPoint" />
          </mxGeometry>
        </mxCell>
        <mxCell id="5jeptjNZS5MFGglba8kD-75" value="Programma" style="rhombus;whiteSpace=wrap;html=1;rotation=0;" parent="1" vertex="1">
          <mxGeometry x="1560" y="365" width="80" height="80" as="geometry" />
        </mxCell>
        <mxCell id="5jeptjNZS5MFGglba8kD-76" value="" style="endArrow=none;html=1;rounded=0;exitX=0.5;exitY=0;exitDx=0;exitDy=0;" parent="1" source="5jeptjNZS5MFGglba8kD-23" target="5jeptjNZS5MFGglba8kD-75" edge="1">
          <mxGeometry width="50" height="50" relative="1" as="geometry">
            <mxPoint x="1680" y="470" as="sourcePoint" />
            <mxPoint x="1630" y="350" as="targetPoint" />
          </mxGeometry>
        </mxCell>
        <mxCell id="5jeptjNZS5MFGglba8kD-77" value="" style="endArrow=none;html=1;rounded=0;exitX=0;exitY=0.5;exitDx=0;exitDy=0;" parent="1" edge="1">
          <mxGeometry width="50" height="50" relative="1" as="geometry">
            <mxPoint x="1599.87" y="364.9999999999999" as="sourcePoint" />
            <mxPoint x="1600.05" y="329.2" as="targetPoint" />
          </mxGeometry>
        </mxCell>
        <mxCell id="5jeptjNZS5MFGglba8kD-80" value="Dati_Seg" style="rhombus;whiteSpace=wrap;html=1;" parent="1" vertex="1">
          <mxGeometry x="370" y="60" width="80" height="80" as="geometry" />
        </mxCell>
        <mxCell id="5jeptjNZS5MFGglba8kD-83" value="" style="endArrow=none;html=1;rounded=0;entryX=0.5;entryY=1;entryDx=0;entryDy=0;" parent="1" target="5jeptjNZS5MFGglba8kD-80" edge="1">
          <mxGeometry width="50" height="50" relative="1" as="geometry">
            <mxPoint x="310" y="100" as="sourcePoint" />
            <mxPoint x="390" y="80" as="targetPoint" />
            <Array as="points">
              <mxPoint x="370" y="100" />
            </Array>
          </mxGeometry>
        </mxCell>
        <mxCell id="5jeptjNZS5MFGglba8kD-84" value="Voti" style="swimlane;fontStyle=0;childLayout=stackLayout;horizontal=1;startSize=30;horizontalStack=0;resizeParent=1;resizeParentMax=0;resizeLast=0;collapsible=1;marginBottom=0;whiteSpace=wrap;html=1;" parent="1" vertex="1">
          <mxGeometry x="1730" y="460" width="140" height="180" as="geometry" />
        </mxCell>
        <mxCell id="5jeptjNZS5MFGglba8kD-85" value="&lt;div&gt;&lt;i&gt;&lt;u&gt;&lt;b&gt;Insegnamento&lt;/b&gt;&lt;/u&gt;&lt;/i&gt;&lt;/div&gt;&lt;div&gt;&lt;i&gt;&lt;u&gt;&lt;b&gt;Corso&lt;br&gt;&lt;/b&gt;&lt;/u&gt;&lt;/i&gt;&lt;/div&gt;&lt;div&gt;&lt;i&gt;&lt;u&gt;&lt;b&gt;Data&lt;/b&gt;&lt;/u&gt;&lt;/i&gt;&lt;/div&gt;&lt;div&gt;&lt;i&gt;&lt;u&gt;&lt;b&gt;Studente&lt;br&gt;&lt;/b&gt;&lt;/u&gt;&lt;/i&gt;&lt;/div&gt;&lt;div&gt;&lt;b&gt;Voto&lt;br&gt;&lt;/b&gt;&lt;/div&gt;&lt;div&gt;&lt;b&gt;Lode&lt;/b&gt;&lt;/div&gt;&lt;div&gt;&lt;b&gt;Verbalizzazione&lt;br&gt;&lt;/b&gt;&lt;/div&gt;&lt;div&gt;&lt;br&gt;&lt;/div&gt;" style="text;strokeColor=none;fillColor=none;align=left;verticalAlign=middle;spacingLeft=4;spacingRight=4;overflow=hidden;points=[[0,0.5],[1,0.5]];portConstraint=eastwest;rotatable=0;whiteSpace=wrap;html=1;" parent="5jeptjNZS5MFGglba8kD-84" vertex="1">
          <mxGeometry y="30" width="140" height="150" as="geometry" />
        </mxCell>
        <mxCell id="5jeptjNZS5MFGglba8kD-86" value="" style="endArrow=none;html=1;rounded=0;" parent="1" edge="1">
          <mxGeometry width="50" height="50" relative="1" as="geometry">
            <mxPoint x="1470" y="719.84" as="sourcePoint" />
            <mxPoint x="1530" y="719.84" as="targetPoint" />
          </mxGeometry>
        </mxCell>
        <mxCell id="5jeptjNZS5MFGglba8kD-87" value="Valutazione" style="rhombus;whiteSpace=wrap;html=1;" parent="1" vertex="1">
          <mxGeometry x="1390" y="480" width="80" height="80" as="geometry" />
        </mxCell>
        <mxCell id="5jeptjNZS5MFGglba8kD-88" value="" style="endArrow=none;html=1;rounded=0;" parent="1" target="5jeptjNZS5MFGglba8kD-87" edge="1">
          <mxGeometry width="50" height="50" relative="1" as="geometry">
            <mxPoint x="1330" y="520" as="sourcePoint" />
            <mxPoint x="1380" y="470" as="targetPoint" />
          </mxGeometry>
        </mxCell>
        <mxCell id="5jeptjNZS5MFGglba8kD-89" value="" style="endArrow=none;html=1;rounded=0;" parent="1" edge="1">
          <mxGeometry width="50" height="50" relative="1" as="geometry">
            <mxPoint x="1470" y="520" as="sourcePoint" />
            <mxPoint x="1730" y="519.83" as="targetPoint" />
          </mxGeometry>
        </mxCell>
        <mxCell id="5jeptjNZS5MFGglba8kD-90" value="&lt;div&gt;Sorgente&lt;/div&gt;&lt;div&gt;(Ha Prop)&lt;br&gt;&lt;/div&gt;" style="rhombus;whiteSpace=wrap;html=1;" parent="1" vertex="1">
          <mxGeometry x="1730" y="250" width="80" height="80" as="geometry" />
        </mxCell>
        <mxCell id="5jeptjNZS5MFGglba8kD-91" value="" style="endArrow=none;html=1;rounded=0;" parent="1" target="5jeptjNZS5MFGglba8kD-90" edge="1">
          <mxGeometry width="50" height="50" relative="1" as="geometry">
            <mxPoint x="1670" y="290" as="sourcePoint" />
            <mxPoint x="1720" y="240" as="targetPoint" />
          </mxGeometry>
        </mxCell>
        <mxCell id="5jeptjNZS5MFGglba8kD-92" value="" style="endArrow=none;html=1;rounded=0;" parent="1" edge="1">
          <mxGeometry width="50" height="50" relative="1" as="geometry">
            <mxPoint x="1810" y="289.52" as="sourcePoint" />
            <mxPoint x="1870" y="289.52" as="targetPoint" />
          </mxGeometry>
        </mxCell>
        <mxCell id="5jeptjNZS5MFGglba8kD-93" value="(0:1)" style="text;html=1;strokeColor=none;fillColor=none;align=center;verticalAlign=middle;whiteSpace=wrap;rounded=0;" parent="1" vertex="1">
          <mxGeometry x="670" y="70" width="60" height="30" as="geometry" />
        </mxCell>
        <mxCell id="5jeptjNZS5MFGglba8kD-94" value="(0:1)" style="text;html=1;strokeColor=none;fillColor=none;align=center;verticalAlign=middle;whiteSpace=wrap;rounded=0;" parent="1" vertex="1">
          <mxGeometry x="670" y="350" width="60" height="30" as="geometry" />
        </mxCell>
        <mxCell id="5jeptjNZS5MFGglba8kD-96" value="(0:1)" style="text;html=1;strokeColor=none;fillColor=none;align=center;verticalAlign=middle;whiteSpace=wrap;rounded=0;" parent="1" vertex="1">
          <mxGeometry x="670" y="520" width="60" height="30" as="geometry" />
        </mxCell>
        <mxCell id="5jeptjNZS5MFGglba8kD-97" value="(0:1)" style="text;html=1;strokeColor=none;fillColor=none;align=center;verticalAlign=middle;whiteSpace=wrap;rounded=0;" parent="1" vertex="1">
          <mxGeometry x="430" y="70" width="60" height="30" as="geometry" />
        </mxCell>
        <mxCell id="5jeptjNZS5MFGglba8kD-98" value="(1:1)" style="text;html=1;strokeColor=none;fillColor=none;align=center;verticalAlign=middle;whiteSpace=wrap;rounded=0;" parent="1" vertex="1">
          <mxGeometry x="770" y="70" width="60" height="30" as="geometry" />
        </mxCell>
        <mxCell id="5jeptjNZS5MFGglba8kD-99" value="(1:1)" style="text;html=1;strokeColor=none;fillColor=none;align=center;verticalAlign=middle;whiteSpace=wrap;rounded=0;" parent="1" vertex="1">
          <mxGeometry x="770" y="350" width="60" height="30" as="geometry" />
        </mxCell>
        <mxCell id="5jeptjNZS5MFGglba8kD-101" value="(1:1)" style="text;html=1;strokeColor=none;fillColor=none;align=center;verticalAlign=middle;whiteSpace=wrap;rounded=0;" parent="1" vertex="1">
          <mxGeometry x="770" y="520" width="60" height="30" as="geometry" />
        </mxCell>
        <mxCell id="5jeptjNZS5MFGglba8kD-102" value="(1:1)" style="text;html=1;strokeColor=none;fillColor=none;align=center;verticalAlign=middle;whiteSpace=wrap;rounded=0;" parent="1" vertex="1">
          <mxGeometry x="330" y="70" width="60" height="30" as="geometry" />
        </mxCell>
        <mxCell id="5jeptjNZS5MFGglba8kD-103" value="(0:3)" style="text;html=1;strokeColor=none;fillColor=none;align=center;verticalAlign=middle;whiteSpace=wrap;rounded=0;" parent="1" vertex="1">
          <mxGeometry x="1010" y="70" width="60" height="30" as="geometry" />
        </mxCell>
        <mxCell id="5jeptjNZS5MFGglba8kD-104" value="(1:1)" style="text;html=1;strokeColor=none;fillColor=none;align=center;verticalAlign=middle;whiteSpace=wrap;rounded=0;" parent="1" vertex="1">
          <mxGeometry x="1110" y="70" width="60" height="30" as="geometry" />
        </mxCell>
        <mxCell id="5jeptjNZS5MFGglba8kD-105" value="(1:1)" style="text;html=1;strokeColor=none;fillColor=none;align=center;verticalAlign=middle;whiteSpace=wrap;rounded=0;" parent="1" vertex="1">
          <mxGeometry x="1010" y="245" width="60" height="30" as="geometry" />
        </mxCell>
        <mxCell id="5jeptjNZS5MFGglba8kD-106" value="(0:N)" style="text;html=1;strokeColor=none;fillColor=none;align=center;verticalAlign=middle;whiteSpace=wrap;rounded=0;" parent="1" vertex="1">
          <mxGeometry x="1110" y="245" width="60" height="30" as="geometry" />
        </mxCell>
        <mxCell id="5jeptjNZS5MFGglba8kD-107" value="(0:N)" style="text;html=1;strokeColor=none;fillColor=none;align=center;verticalAlign=middle;whiteSpace=wrap;rounded=0;" parent="1" vertex="1">
          <mxGeometry x="1010" y="405" width="60" height="30" as="geometry" />
        </mxCell>
        <mxCell id="5jeptjNZS5MFGglba8kD-108" value="(1:1)" style="text;html=1;strokeColor=none;fillColor=none;align=center;verticalAlign=middle;whiteSpace=wrap;rounded=0;" parent="1" vertex="1">
          <mxGeometry x="1110" y="405" width="60" height="30" as="geometry" />
        </mxCell>
        <mxCell id="5jeptjNZS5MFGglba8kD-109" value="(0:N)" style="text;html=1;strokeColor=none;fillColor=none;align=center;verticalAlign=middle;whiteSpace=wrap;rounded=0;" parent="1" vertex="1">
          <mxGeometry x="1010" y="600" width="60" height="30" as="geometry" />
        </mxCell>
        <mxCell id="5jeptjNZS5MFGglba8kD-110" value="(1:1)" style="text;html=1;strokeColor=none;fillColor=none;align=center;verticalAlign=middle;whiteSpace=wrap;rounded=0;" parent="1" vertex="1">
          <mxGeometry x="1110" y="600" width="60" height="30" as="geometry" />
        </mxCell>
        <mxCell id="5jeptjNZS5MFGglba8kD-111" value="(0:N)" style="text;html=1;strokeColor=none;fillColor=none;align=center;verticalAlign=middle;whiteSpace=wrap;rounded=0;" parent="1" vertex="1">
          <mxGeometry x="1350" y="140" width="60" height="30" as="geometry" />
        </mxCell>
        <mxCell id="5jeptjNZS5MFGglba8kD-112" value="(1:1)" style="text;html=1;strokeColor=none;fillColor=none;align=center;verticalAlign=middle;whiteSpace=wrap;rounded=0;" parent="1" vertex="1">
          <mxGeometry x="1450" y="140" width="60" height="30" as="geometry" />
        </mxCell>
        <mxCell id="5jeptjNZS5MFGglba8kD-113" value="(0:N)" style="text;html=1;strokeColor=none;fillColor=none;align=center;verticalAlign=middle;whiteSpace=wrap;rounded=0;" parent="1" vertex="1">
          <mxGeometry x="1690" y="170" width="60" height="30" as="geometry" />
        </mxCell>
        <mxCell id="5jeptjNZS5MFGglba8kD-114" value="(1:1)" style="text;html=1;strokeColor=none;fillColor=none;align=center;verticalAlign=middle;whiteSpace=wrap;rounded=0;" parent="1" vertex="1">
          <mxGeometry x="1790" y="170" width="60" height="30" as="geometry" />
        </mxCell>
        <mxCell id="5jeptjNZS5MFGglba8kD-115" value="(1:1)" style="text;html=1;strokeColor=none;fillColor=none;align=center;verticalAlign=middle;whiteSpace=wrap;rounded=0;" parent="1" vertex="1">
          <mxGeometry x="1790" y="260" width="60" height="30" as="geometry" />
        </mxCell>
        <mxCell id="5jeptjNZS5MFGglba8kD-116" value="(0:N)" style="text;html=1;strokeColor=none;fillColor=none;align=center;verticalAlign=middle;whiteSpace=wrap;rounded=0;" parent="1" vertex="1">
          <mxGeometry x="1690" y="260" width="60" height="30" as="geometry" />
        </mxCell>
        <mxCell id="5jeptjNZS5MFGglba8kD-117" value="(1:N)" style="text;html=1;strokeColor=none;fillColor=none;align=center;verticalAlign=middle;whiteSpace=wrap;rounded=0;" parent="1" vertex="1">
          <mxGeometry x="1350" y="280" width="60" height="30" as="geometry" />
        </mxCell>
        <mxCell id="5jeptjNZS5MFGglba8kD-118" value="(1:1)" style="text;html=1;strokeColor=none;fillColor=none;align=center;verticalAlign=middle;whiteSpace=wrap;rounded=0;" parent="1" vertex="1">
          <mxGeometry x="1450" y="280" width="60" height="30" as="geometry" />
        </mxCell>
        <mxCell id="5jeptjNZS5MFGglba8kD-119" value="(0:N)" style="text;html=1;strokeColor=none;fillColor=none;align=center;verticalAlign=middle;whiteSpace=wrap;rounded=0;" parent="1" vertex="1">
          <mxGeometry x="1590" y="340" width="60" height="30" as="geometry" />
        </mxCell>
        <mxCell id="5jeptjNZS5MFGglba8kD-120" value="(1:1)" style="text;html=1;strokeColor=none;fillColor=none;align=center;verticalAlign=middle;whiteSpace=wrap;rounded=0;" parent="1" vertex="1">
          <mxGeometry x="1590" y="440" width="60" height="30" as="geometry" />
        </mxCell>
        <mxCell id="5jeptjNZS5MFGglba8kD-121" value="(0:1)" style="text;html=1;strokeColor=none;fillColor=none;align=center;verticalAlign=middle;whiteSpace=wrap;rounded=0;" parent="1" vertex="1">
          <mxGeometry x="1350" y="490" width="60" height="30" as="geometry" />
        </mxCell>
        <mxCell id="5jeptjNZS5MFGglba8kD-122" value="(1:1)" style="text;html=1;strokeColor=none;fillColor=none;align=center;verticalAlign=middle;whiteSpace=wrap;rounded=0;" parent="1" vertex="1">
          <mxGeometry x="1450" y="490" width="60" height="30" as="geometry" />
        </mxCell>
        <mxCell id="5jeptjNZS5MFGglba8kD-123" value="(1:1)" style="text;html=1;strokeColor=none;fillColor=none;align=center;verticalAlign=middle;whiteSpace=wrap;rounded=0;" parent="1" vertex="1">
          <mxGeometry x="1350" y="580" width="60" height="30" as="geometry" />
        </mxCell>
        <mxCell id="5jeptjNZS5MFGglba8kD-124" value="(0:N)" style="text;html=1;strokeColor=none;fillColor=none;align=center;verticalAlign=middle;whiteSpace=wrap;rounded=0;" parent="1" vertex="1">
          <mxGeometry x="1450" y="580" width="60" height="30" as="geometry" />
        </mxCell>
        <mxCell id="5jeptjNZS5MFGglba8kD-126" value="(1:1)" style="text;html=1;strokeColor=none;fillColor=none;align=center;verticalAlign=middle;whiteSpace=wrap;rounded=0;" parent="1" vertex="1">
          <mxGeometry x="1350" y="690" width="60" height="30" as="geometry" />
        </mxCell>
        <mxCell id="5jeptjNZS5MFGglba8kD-127" value="(0:N)" style="text;html=1;strokeColor=none;fillColor=none;align=center;verticalAlign=middle;whiteSpace=wrap;rounded=0;" parent="1" vertex="1">
          <mxGeometry x="1450" y="690" width="60" height="30" as="geometry" />
        </mxCell>
        <mxCell id="5jeptjNZS5MFGglba8kD-130" value="&lt;div&gt;TRIGGER:&lt;/div&gt;&lt;div&gt;&amp;nbsp;&lt;span style=&quot;white-space: pre;&quot;&gt;&#x9;&lt;/span&gt;Il cancellamento di uno studente provoca il suo spostamento nella tabella degli inattivi e con lui lo spostamento della sua carriera nella tabella Archivio&amp;nbsp;&lt;/div&gt;&lt;div&gt;(Archivio = Iscrizioni &lt;span lang=&quot;it&quot; class=&quot;ILfuVd&quot;&gt;&lt;/span&gt;&lt;span lang=&quot;it&quot; class=&quot;ILfuVd&quot;&gt;&lt;/span&gt;⨝ Voti)&lt;br&gt;&lt;/div&gt;" style="rounded=1;whiteSpace=wrap;html=1;" parent="1" vertex="1">
          <mxGeometry x="710" y="690" width="340" height="90" as="geometry" />
        </mxCell>
        <mxCell id="5jeptjNZS5MFGglba8kD-131" value="&lt;div&gt;TRIGGER:&lt;/div&gt;&lt;div&gt;Verifica che il numero di insegnamenti non sia &amp;gt; 3&lt;br&gt;&lt;/div&gt;" style="rounded=1;whiteSpace=wrap;html=1;" parent="1" vertex="1">
          <mxGeometry x="1010" y="160" width="160" height="70" as="geometry" />
        </mxCell>
        <mxCell id="5jeptjNZS5MFGglba8kD-132" value="&lt;div&gt;TRIGGER:&lt;/div&gt;&lt;div&gt;Non è possibile pianificare un esame dello stesso corso dello stesso anno, nel medesimo giorno&lt;br&gt;&lt;/div&gt;" style="rounded=1;whiteSpace=wrap;html=1;" parent="1" vertex="1">
          <mxGeometry x="1350" y="360" width="200" height="90" as="geometry" />
        </mxCell>
        <mxCell id="5jeptjNZS5MFGglba8kD-133" value="&lt;div&gt;TRIGGER:&lt;/div&gt;&lt;div&gt;Controllo coerenza Propedeuticità Esami&lt;br&gt;&lt;/div&gt;" style="rounded=1;whiteSpace=wrap;html=1;" parent="1" vertex="1">
          <mxGeometry x="1860" y="355" width="160" height="65" as="geometry" />
        </mxCell>
        <mxCell id="5jeptjNZS5MFGglba8kD-136" value="" style="endArrow=none;html=1;rounded=0;" parent="1" edge="1">
          <mxGeometry width="50" height="50" relative="1" as="geometry">
            <mxPoint x="600" y="470" as="sourcePoint" />
            <mxPoint x="710" y="550" as="targetPoint" />
            <Array as="points">
              <mxPoint x="600" y="200" />
              <mxPoint x="600" y="550" />
            </Array>
          </mxGeometry>
        </mxCell>
        <mxCell id="5jeptjNZS5MFGglba8kD-142" value="" style="endArrow=none;html=1;rounded=0;" parent="1" edge="1">
          <mxGeometry width="50" height="50" relative="1" as="geometry">
            <mxPoint x="450" y="100" as="sourcePoint" />
            <mxPoint x="510" y="100" as="targetPoint" />
          </mxGeometry>
        </mxCell>
        <mxCell id="icdrcerb1lxKCnP7kqdp-2" value="&lt;div&gt;TRIGGER:&lt;/div&gt;&lt;div&gt;Gestione Dominio attributo &#39;Matricola&#39;&amp;nbsp; tale che: &lt;br&gt;&lt;/div&gt;&lt;div&gt;(Studenti.Matricola ∩ Inattivi.Matricola) == Ø&lt;/div&gt;" style="rounded=1;whiteSpace=wrap;html=1;" vertex="1" parent="1">
          <mxGeometry x="300" y="430" width="270" height="80" as="geometry" />
        </mxCell>
        <mxCell id="icdrcerb1lxKCnP7kqdp-3" value="Seguito" style="rhombus;whiteSpace=wrap;html=1;" vertex="1" parent="1">
          <mxGeometry x="1050" y="315" width="80" height="80" as="geometry" />
        </mxCell>
        <mxCell id="icdrcerb1lxKCnP7kqdp-4" value="" style="endArrow=none;html=1;rounded=0;" edge="1" parent="1" target="icdrcerb1lxKCnP7kqdp-3">
          <mxGeometry width="50" height="50" relative="1" as="geometry">
            <mxPoint x="990" y="500" as="sourcePoint" />
            <mxPoint x="1040" y="305" as="targetPoint" />
            <Array as="points">
              <mxPoint x="1020" y="500" />
              <mxPoint x="1020" y="355" />
            </Array>
          </mxGeometry>
        </mxCell>
        <mxCell id="icdrcerb1lxKCnP7kqdp-5" value="" style="endArrow=none;html=1;rounded=0;" edge="1" parent="1">
          <mxGeometry width="50" height="50" relative="1" as="geometry">
            <mxPoint x="1130" y="354.52" as="sourcePoint" />
            <mxPoint x="1190" y="354.52" as="targetPoint" />
          </mxGeometry>
        </mxCell>
        <mxCell id="icdrcerb1lxKCnP7kqdp-6" value="(1:1)" style="text;html=1;strokeColor=none;fillColor=none;align=center;verticalAlign=middle;whiteSpace=wrap;rounded=0;" vertex="1" parent="1">
          <mxGeometry x="1010" y="325" width="60" height="30" as="geometry" />
        </mxCell>
        <mxCell id="icdrcerb1lxKCnP7kqdp-7" value="(0:N)" style="text;html=1;strokeColor=none;fillColor=none;align=center;verticalAlign=middle;whiteSpace=wrap;rounded=0;" vertex="1" parent="1">
          <mxGeometry x="1110" y="325" width="60" height="30" as="geometry" />
        </mxCell>
      </root>
    </mxGraphModel>
  </diagram>
</mxfile>
